<svg xmlns="http://www.w3.org/2000/svg" viewBox="0 -0.5 14 15" shape-rendering="crispEdges">
<metadata>Made with Pixels to Svg https://codepen.io/shshaw/pen/XbxvNj</metadata>
<path stroke="#464a74" d="M2 0h10M1 1h1M12 1h1M0 2h1M13 2h1M0 3h1M13 3h1M0 4h1M3 4h2M9 4h2M13 4h1M0 5h1M2 5h1M5 5h1M8 5h1M11 5h1M13 5h1M0 6h1M13 6h1M0 7h1M13 7h1M0 8h1M4 8h1M9 8h1M13 8h1M0 9h1M4 9h6M13 9h1M0 10h1M5 10h4M13 10h1M0 11h1M13 11h1M0 12h1M13 12h1M1 13h1M12 13h1M2 14h10" />
<path stroke="#ffffff" d="M2 1h10M1 2h12M1 3h12M1 4h2M5 4h4M11 4h2M1 5h1M3 5h2M6 5h2M9 5h2M12 5h1M1 6h12M1 7h12M1 8h3M5 8h4M10 8h3M1 9h3M10 9h3M1 10h4M9 10h4M2 11h10" />
<path stroke="#7176a9" d="M1 11h1M12 11h1M1 12h12M2 13h10" />
</svg>